<svg width="16" height="15" viewBox="0 0 16 15" fill="none" xmlns="http://www.w3.org/2000/svg">
<path d="M3.33333 1.6675C3.33311 2.10953 3.1573 2.53337 2.84458 2.84577C2.53187 3.15818 2.10786 3.33356 1.66583 3.33334C1.2238 3.33312 0.79997 3.15731 0.48756 2.84459C0.17516 2.53188 -0.000229774 2.10786 2.25925e-07 1.66584C0.000220226 1.22381 0.17602 0.79997 0.48874 0.48757C0.80146 0.17517 1.22547 -0.000219793 1.6675 2.06718e-07C2.10952 0.000220207 2.53336 0.17603 2.84576 0.48875C3.15817 0.80147 3.33355 1.22548 3.33333 1.6675ZM3.38333 4.5675H0.0500002V15.0009H3.38333V4.5675ZM8.65 4.5675H5.33333V15.0009H8.6167V9.52588C8.6167 6.47584 12.5917 6.1925 12.5917 9.52588V15.0009H15.8833V8.39248C15.8833 3.25084 10 3.4425 8.6167 5.9675L8.65 4.5675Z" fill="black"/>
</svg>
