<svg width="24" height="24" viewBox="0 0 24 24" fill="none" xmlns="http://www.w3.org/2000/svg">
<path d="M17.8838 6.04281C16.3126 4.46781 14.2201 3.60156 11.9963 3.60156C7.40635 3.60156 3.67135 7.33656 3.67135 11.9266C3.67135 13.3928 4.05385 14.8253 4.78135 16.0891L3.6001 20.4016L8.01385 19.2428C9.22885 19.9066 10.5976 20.2553 11.9926 20.2553H11.9963C16.5826 20.2553 20.4001 16.5203 20.4001 11.9303C20.4001 9.70656 19.4551 7.61781 17.8838 6.04281ZM11.9963 18.8528C10.7513 18.8528 9.5326 18.5191 8.47135 17.8891L8.2201 17.7391L5.6026 18.4253L6.3001 15.8716L6.1351 15.6091C5.44135 14.5066 5.0776 13.2353 5.0776 11.9266C5.0776 8.11281 8.1826 5.00781 12.0001 5.00781C13.8488 5.00781 15.5851 5.72781 16.8901 7.03656C18.1951 8.34531 18.9976 10.0816 18.9938 11.9303C18.9938 15.7478 15.8101 18.8528 11.9963 18.8528ZM15.7913 13.6703C15.5851 13.5653 14.5613 13.0628 14.3701 12.9953C14.1788 12.9241 14.0401 12.8903 13.9013 13.1003C13.7626 13.3103 13.3651 13.7753 13.2413 13.9178C13.1213 14.0566 12.9976 14.0753 12.7913 13.9703C11.5688 13.3591 10.7663 12.8791 9.9601 11.4953C9.74635 11.1278 10.1738 11.1541 10.5713 10.3591C10.6388 10.2203 10.6051 10.1003 10.5526 9.99531C10.5001 9.89031 10.0838 8.86656 9.91135 8.45031C9.7426 8.04531 9.5701 8.10156 9.4426 8.09406C9.3226 8.08656 9.18385 8.08656 9.0451 8.08656C8.90635 8.08656 8.68135 8.13906 8.4901 8.34531C8.29885 8.55531 7.7626 9.05781 7.7626 10.0816C7.7626 11.1053 8.50885 12.0953 8.6101 12.2341C8.7151 12.3728 10.0763 14.4728 12.1651 15.3766C13.4851 15.9466 14.0026 15.9953 14.6626 15.8978C15.0638 15.8378 15.8926 15.3953 16.0651 14.9078C16.2376 14.4203 16.2376 14.0041 16.1851 13.9178C16.1363 13.8241 15.9976 13.7716 15.7913 13.6703Z" fill="#E6E6E6"/>
</svg>
