<svg width="29" height="29" viewBox="0 0 29 29" fill="none" xmlns="http://www.w3.org/2000/svg">
<path d="M7.19125 21.9913C7.54514 21.9913 7.84542 21.8678 8.09208 21.6208C8.33847 21.3736 8.46167 21.0729 8.46167 20.7188C8.46167 20.3649 8.33806 20.0647 8.09083 19.8183C7.84361 19.5719 7.54306 19.4487 7.18917 19.4487C6.83528 19.4487 6.535 19.5724 6.28833 19.8196C6.04194 20.0668 5.91875 20.3674 5.91875 20.7213C5.91875 21.0751 6.04236 21.3753 6.28958 21.6217C6.53681 21.8681 6.83736 21.9913 7.19125 21.9913ZM7.19125 15.4379C7.54514 15.4379 7.84542 15.3143 8.09208 15.0671C8.33847 14.8201 8.46167 14.5196 8.46167 14.1654C8.46167 13.8115 8.33806 13.5114 8.09083 13.265C7.84361 13.0186 7.54306 12.8954 7.18917 12.8954C6.83528 12.8954 6.535 13.019 6.28833 13.2663C6.04194 13.5132 5.91875 13.8138 5.91875 14.1679C5.91875 14.5218 6.04236 14.8219 6.28958 15.0683C6.53681 15.3147 6.83736 15.4379 7.19125 15.4379ZM7.19125 8.88458C7.54514 8.88458 7.84542 8.76097 8.09208 8.51375C8.33847 8.26653 8.46167 7.96597 8.46167 7.61208C8.46167 7.25819 8.33806 6.95806 8.09083 6.71167C7.84361 6.46528 7.54306 6.34208 7.18917 6.34208C6.83528 6.34208 6.535 6.46555 6.28833 6.7125C6.04194 6.95972 5.91875 7.26042 5.91875 7.61458C5.91875 7.96847 6.04236 8.26861 6.28958 8.515C6.53681 8.76139 6.83736 8.88458 7.19125 8.88458ZM12.5021 21.7671H22.0683V19.6729H12.5021V21.7671ZM12.5021 15.2138H22.0683V13.1196H12.5021V15.2138ZM12.5021 8.66042H22.0683V6.56625H12.5021V8.66042ZM2.60708 28.3333C1.89069 28.3333 1.27708 28.0779 0.76625 27.5671C0.255417 27.0562 0 26.4426 0 25.7262V2.60708C0 1.89069 0.255417 1.27708 0.76625 0.766251C1.27708 0.255417 1.89069 0 2.60708 0H25.7262C26.4426 0 27.0562 0.255417 27.5671 0.766251C28.0779 1.27708 28.3333 1.89069 28.3333 2.60708V25.7262C28.3333 26.4426 28.0779 27.0562 27.5671 27.5671C27.0562 28.0779 26.4426 28.3333 25.7262 28.3333H2.60708ZM2.60708 26.2392H25.7262C25.8546 26.2392 25.9722 26.1858 26.0792 26.0792C26.1858 25.9722 26.2392 25.8546 26.2392 25.7262V2.60708C26.2392 2.47875 26.1858 2.36111 26.0792 2.25417C25.9722 2.1475 25.8546 2.09417 25.7262 2.09417H2.60708C2.47875 2.09417 2.36111 2.1475 2.25417 2.25417C2.1475 2.36111 2.09417 2.47875 2.09417 2.60708V25.7262C2.09417 25.8546 2.1475 25.9722 2.25417 26.0792C2.36111 26.1858 2.47875 26.2392 2.60708 26.2392Z" fill="#E8F2FF"/>
</svg>
