<svg width="29" height="29" viewBox="0 0 29 29" fill="none" xmlns="http://www.w3.org/2000/svg">
<path d="M6.45292 21.8804H11.8804V16.4529H6.45292V21.8804ZM16.4529 21.8804H21.8804V16.4529H16.4529V21.8804ZM6.45292 11.8804H11.8804V6.45292H6.45292V11.8804ZM16.4529 11.8804H21.8804V6.45292H16.4529V11.8804ZM2.60708 28.3333C1.89069 28.3333 1.27708 28.0779 0.76625 27.5671C0.255417 27.0562 0 26.4426 0 25.7262V2.60708C0 1.89069 0.255417 1.27708 0.76625 0.766251C1.27708 0.255417 1.89069 0 2.60708 0H25.7262C26.4426 0 27.0562 0.255417 27.5671 0.766251C28.0779 1.27708 28.3333 1.89069 28.3333 2.60708V25.7262C28.3333 26.4426 28.0779 27.0562 27.5671 27.5671C27.0562 28.0779 26.4426 28.3333 25.7262 28.3333H2.60708ZM2.60708 26.2392H25.7262C25.8546 26.2392 25.9722 26.1858 26.0792 26.0792C26.1858 25.9722 26.2392 25.8546 26.2392 25.7262V2.60708C26.2392 2.47875 26.1858 2.36111 26.0792 2.25417C25.9722 2.1475 25.8546 2.09417 25.7262 2.09417H2.60708C2.47875 2.09417 2.36111 2.1475 2.25417 2.25417C2.1475 2.36111 2.09417 2.47875 2.09417 2.60708V25.7262C2.09417 25.8546 2.1475 25.9722 2.25417 26.0792C2.36111 26.1858 2.47875 26.2392 2.60708 26.2392Z" fill="#E8F2FF"/>
</svg>
