<svg width="73" height="73" viewBox="0 0 73 73" fill="none" xmlns="http://www.w3.org/2000/svg">
<path d="M36.0112 72.0223C31.0403 72.0223 26.3628 71.0774 21.9788 69.1875C17.5955 67.2976 13.7823 64.7327 10.5393 61.4931C7.29626 58.2534 4.72913 54.4436 2.83788 50.0635C0.94596 45.6842 0 41.0044 0 36.0242C0 31.0446 0.944959 26.3628 2.83488 21.9788C4.7248 17.5955 7.28959 13.7823 10.5293 10.5393C13.7689 7.29626 17.5788 4.72913 21.9588 2.83788C26.3382 0.94596 31.018 0 35.9982 0C40.9777 0 45.6595 0.945291 50.0435 2.83588C54.4269 4.72646 58.2401 7.29226 61.4831 10.5333C64.7261 13.7743 67.2932 17.5855 69.1845 21.9668C71.0764 26.3482 72.0223 31.0296 72.0223 36.0112V39.9664C72.0223 43.3368 70.865 46.1877 68.5503 48.5191C66.2349 50.8504 63.391 52.0161 60.0186 52.0161C57.6332 52.0161 55.4582 51.3619 53.4936 50.0535C51.529 48.7458 50.0772 47.0042 49.1382 44.8289C47.6144 47.0196 45.7125 48.7651 43.4325 50.0655C41.1524 51.3659 38.6787 52.0161 36.0112 52.0161C31.5531 52.0161 27.7713 50.463 24.6657 47.3567C21.5594 44.2511 20.0062 40.4692 20.0062 36.0112C20.0062 31.5531 21.5594 27.7713 24.6657 24.6657C27.7713 21.5594 31.5531 20.0062 36.0112 20.0062C40.4692 20.0062 44.2511 21.5594 47.3567 24.6657C50.463 27.7713 52.0161 31.5531 52.0161 36.0112V39.9664C52.0161 42.1617 52.801 44.052 54.3709 45.6372C55.9407 47.2223 57.8233 48.0149 60.0186 48.0149C62.214 48.0149 64.0965 47.2223 65.6664 45.6372C67.2362 44.052 68.0211 42.1617 68.0211 39.9664V36.0112C68.0211 27.0751 64.9201 19.5061 58.7182 13.3041C52.5163 7.1022 44.9473 4.00124 36.0112 4.00124C27.0751 4.00124 19.5061 7.1022 13.3041 13.3041C7.1022 19.5061 4.00124 27.0751 4.00124 36.0112C4.00124 44.9473 7.1022 52.5163 13.3041 58.7182C19.5061 64.9201 27.0751 68.0211 36.0112 68.0211H56.0174V72.0223H36.0112ZM36.0112 48.0149C39.3455 48.0149 42.1798 46.8479 44.5138 44.5138C46.8479 42.1798 48.0149 39.3455 48.0149 36.0112C48.0149 32.6768 46.8479 29.8426 44.5138 27.5085C42.1798 25.1745 39.3455 24.0074 36.0112 24.0074C32.6768 24.0074 29.8426 25.1745 27.5085 27.5085C25.1745 29.8426 24.0074 32.6768 24.0074 36.0112C24.0074 39.3455 25.1745 42.1798 27.5085 44.5138C29.8426 46.8479 32.6768 48.0149 36.0112 48.0149Z" fill="#336AE9"/>
</svg>
