<svg width="22" height="19" viewBox="0 0 22 19" fill="none" xmlns="http://www.w3.org/2000/svg">
<path d="M9.5 8.05775L1.5 2.94225V13.1923C1.5 13.2821 1.52883 13.3558 1.5865 13.4135C1.64417 13.4712 1.71792 13.5 1.80775 13.5H11.8652V15H1.80775C1.30258 15 0.875 14.825 0.525 14.475C0.175 14.125 0 13.6974 0 13.1923V1.80775C0 1.30258 0.175 0.875 0.525 0.525C0.875 0.175 1.30258 0 1.80775 0H17.1923C17.6974 0 18.125 0.175 18.475 0.525C18.825 0.875 19 1.30258 19 1.80775V6.69225H17.5V2.94225L9.5 8.05775ZM9.5 6.5L17.346 1.5H1.65375L9.5 6.5ZM17.5 18.9807C16.4962 18.9807 15.6394 18.6259 14.9298 17.9163C14.2201 17.2068 13.8652 16.3501 13.8652 15.3462V10.8463C13.8652 10.2296 14.0765 9.71 14.499 9.2875C14.9215 8.865 15.4411 8.65375 16.0578 8.65375C16.6743 8.65375 17.1938 8.865 17.6163 9.2875C18.0388 9.71 18.25 10.2296 18.25 10.8463V15.3462H16.75V10.8463C16.75 10.6551 16.6823 10.4919 16.547 10.3567C16.4118 10.2214 16.2488 10.1538 16.0578 10.1538C15.8666 10.1538 15.7034 10.2214 15.5682 10.3567C15.4329 10.4919 15.3652 10.6551 15.3652 10.8463V15.3462C15.3652 15.9346 15.5739 16.4374 15.9913 16.8547C16.4086 17.2721 16.9115 17.4807 17.5 17.4807C18.0885 17.4807 18.5913 17.2721 19.0085 16.8547C19.4258 16.4374 19.6345 15.9346 19.6345 15.3462V11.3463H21.1345V15.3462C21.1345 16.3501 20.7797 17.2068 20.07 17.9163C19.3605 18.6259 18.5038 18.9807 17.5 18.9807ZM1.5 2.94225V1.5V13.5V2.94225Z" fill="#EDEFF1"/>
</svg>
