<svg width="48" height="48" viewBox="0 0 48 48" fill="none" xmlns="http://www.w3.org/2000/svg">
<path d="M37.06 18L26 6.94C25.719 6.65862 25.3377 6.50035 24.94 6.5H16C14.5413 6.5 13.1424 7.07946 12.1109 8.11091C11.0795 9.14236 10.5 10.5413 10.5 12V36C10.5 37.4587 11.0795 38.8576 12.1109 39.8891C13.1424 40.9205 14.5413 41.5 16 41.5H32C33.4587 41.5 34.8576 40.9205 35.8891 39.8891C36.9205 38.8576 37.5 37.4587 37.5 36V19C37.4843 18.6232 37.3272 18.2662 37.06 18ZM26.5 11.62L32.38 17.5H26.5V11.62ZM32 38.5H16C15.337 38.5 14.7011 38.2366 14.2322 37.7678C13.7634 37.2989 13.5 36.663 13.5 36V12C13.5 11.337 13.7634 10.7011 14.2322 10.2322C14.7011 9.76339 15.337 9.5 16 9.5H23.5V19C23.5052 19.3962 23.6649 19.7747 23.9451 20.0549C24.2253 20.3351 24.6038 20.4948 25 20.5H34.5V36C34.5 36.663 34.2366 37.2989 33.7678 37.7678C33.2989 38.2366 32.663 38.5 32 38.5Z" fill="#668FEE"/>
<path d="M26.98 29.6984C25.7502 28.9267 24.8247 27.7539 24.36 26.3784C24.7906 25.0916 24.9206 23.7232 24.74 22.3784C24.6824 22.0396 24.5171 21.7283 24.2688 21.4908C24.0204 21.2532 23.7022 21.1019 23.3612 21.0592C23.0201 21.0166 22.6744 21.0849 22.3753 21.2541C22.0761 21.4232 21.8393 21.6842 21.7 21.9984C21.4723 23.6152 21.644 25.2632 22.2 26.7984C21.4404 28.5729 20.5927 30.3084 19.66 31.9984C18.24 32.7984 16.3 33.9984 16 35.3784C15.76 36.4984 17.86 39.3784 21.44 33.1384C23.0327 32.5499 24.663 32.0688 26.32 31.6984C27.5448 32.4002 28.912 32.8172 30.32 32.9184C30.6433 32.9268 30.9618 32.8394 31.2355 32.6673C31.5092 32.4952 31.726 32.246 31.8585 31.951C31.991 31.6561 32.0334 31.3285 31.9803 31.0096C31.9272 30.6906 31.781 30.3945 31.56 30.1584C30.72 29.2984 28.22 29.5384 26.98 29.6984ZM17.42 35.6984C17.9797 34.7387 18.72 33.8965 19.6 33.2184C18.24 35.3784 17.42 35.7584 17.42 35.7184V35.6984ZM23.26 22.0784C23.78 22.0784 23.74 24.3784 23.38 24.9984C23.1111 24.0548 23.07 23.0609 23.26 22.0984V22.0784ZM21.52 31.8384C22.1962 30.6013 22.7843 29.3181 23.28 27.9984C23.8109 28.9836 24.5476 29.8431 25.44 30.5184C24.0983 30.8549 22.787 31.3032 21.52 31.8584V31.8384ZM30.92 31.4784C30.92 31.4784 30.56 31.9184 28.26 30.9184C30.76 30.7584 31.18 31.3384 30.92 31.4984V31.4784Z" fill="#668FEE"/>
</svg>
