<svg xmlns="http://www.w3.org/2000/svg" width="50" height="39" viewBox="0 0 50 39" fill="none">
  <path d="M5 6C2 12 2 27 5 33" stroke="currentColor" stroke-width="2" stroke-linecap="round"/>
  <g transform="translate(8, 0)">
    <path d="M20.9405 33.2943L33.6449 30.5782L33.6011 30.6658C33.5427 31.4252 33.4113 32.1699 33.2068 32.9001C33.0024 33.601 32.7541 34.2581 32.4621 34.8714L19.8015 37.5876V37.4999C19.8599 36.7406 19.9913 36.0105 20.1957 35.3095C20.4002 34.5794 20.6484 33.9077 20.9405 33.2943ZM32.4621 26.8107L19.8015 29.483V21.4223L15.8149 22.2546V26.7231C15.8149 26.9275 15.7857 27.132 15.7273 27.3364C15.6689 27.5116 15.5958 27.6723 15.5082 27.8183L13.4492 30.8849C13.1864 31.2645 12.8651 31.5858 12.4855 31.8487C12.1058 32.0823 11.6823 32.2575 11.215 32.3744L5.48363e-05 34.74L0.0438632 34.6962C0.102274 33.9369 0.2337 33.2067 0.438139 32.5058C0.642578 31.7756 0.890826 31.0893 1.18288 30.4468L11.8721 28.1688V23.087L1.88382 25.2336V25.146C1.97143 24.3866 2.10286 23.6565 2.27809 22.9556C2.48253 22.2254 2.73078 21.5537 3.02284 20.9404L11.8721 19.0566V3.32938H11.9159C12.4416 2.65766 13.0258 2.04434 13.6683 1.48943C14.34 0.934524 15.0555 0.438029 15.8149 -5.52796e-05V18.2242L19.8015 17.3481V5.30076C20.3564 4.62903 20.9551 4.01572 21.5976 3.46081C22.2401 2.9059 22.9557 2.40941 23.7442 1.97132V16.5157L33.6449 14.4129L33.6011 14.5005C33.5427 15.2599 33.4113 16.0046 33.2068 16.7348C33.0024 17.4357 32.7541 18.0928 32.4621 18.7061L23.7442 20.5899V24.6203L33.6449 22.5175L33.6011 22.5613C33.5427 23.3206 33.4113 24.0654 33.2068 24.7955C33.0024 25.4964 32.7541 26.1682 32.4621 26.8107Z" fill="currentColor"/>
  </g>
  <path d="M45 6C48 12 48 27 45 33" stroke="currentColor" stroke-width="2" stroke-linecap="round"/>
</svg>
