<svg width="24" height="24" viewBox="0 0 24 24" fill="none" xmlns="http://www.w3.org/2000/svg">
<mask id="mask0_68085_13079" style="mask-type:alpha" maskUnits="userSpaceOnUse" x="0" y="0" width="24" height="24">
<rect width="24" height="24" fill="#D9D9D9"/>
</mask>
<g mask="url(#mask0_68085_13079)">
<path d="M5 20.7489C4.23617 20.7489 3.58683 20.4815 3.052 19.9469C2.51733 19.412 2.25 18.7627 2.25 17.9989V10.9989C2.25 10.235 2.51733 9.58571 3.052 9.05088C3.58683 8.51621 4.23617 8.24888 5 8.24888C5.43083 8.24888 5.82567 8.34054 6.1845 8.52388C6.5435 8.70721 6.85508 8.94888 7.11925 9.24888H8.25V4.42188H17.75V9.24888H19C19.7638 9.24888 20.4132 9.51621 20.948 10.0509C21.4827 10.5857 21.75 11.235 21.75 11.9989V19.7489H7.11925C6.85508 20.0489 6.5435 20.2905 6.1845 20.4739C5.82567 20.6572 5.43083 20.7489 5 20.7489ZM5 19.2489C5.3475 19.2489 5.64267 19.1274 5.8855 18.8844C6.1285 18.6415 6.25 18.3464 6.25 17.9989V10.9989C6.25 10.6514 6.1285 10.3562 5.8855 10.1134C5.64267 9.87038 5.3475 9.74888 5 9.74888C4.6525 9.74888 4.35733 9.87038 4.1145 10.1134C3.8715 10.3562 3.75 10.6514 3.75 10.9989V17.9989C3.75 18.3464 3.8715 18.6415 4.1145 18.8844C4.35733 19.1274 4.6525 19.2489 5 19.2489ZM9.75 9.24888H16.25V5.92188H9.75V9.24888ZM7.75 18.2489H20.25V11.9989C20.25 11.6514 20.1285 11.3562 19.8855 11.1134C19.6427 10.8704 19.3475 10.7489 19 10.7489H7.75V18.2489ZM15 13.9989C15.2833 13.9989 15.5208 13.903 15.7125 13.7114C15.9042 13.5197 16 13.2822 16 12.9989C16 12.7155 15.9042 12.478 15.7125 12.2864C15.5208 12.0947 15.2833 11.9989 15 11.9989C14.7167 11.9989 14.4792 12.0947 14.2875 12.2864C14.0958 12.478 14 12.7155 14 12.9989C14 13.2822 14.0958 13.5197 14.2875 13.7114C14.4792 13.903 14.7167 13.9989 15 13.9989ZM18 13.9989C18.2833 13.9989 18.5208 13.903 18.7125 13.7114C18.9042 13.5197 19 13.2822 19 12.9989C19 12.7155 18.9042 12.478 18.7125 12.2864C18.5208 12.0947 18.2833 11.9989 18 11.9989C17.7167 11.9989 17.4792 12.0947 17.2875 12.2864C17.0958 12.478 17 12.7155 17 12.9989C17 13.2822 17.0958 13.5197 17.2875 13.7114C17.4792 13.903 17.7167 13.9989 18 13.9989ZM15 16.9989C15.2833 16.9989 15.5208 16.903 15.7125 16.7114C15.9042 16.5197 16 16.2822 16 15.9989C16 15.7155 15.9042 15.478 15.7125 15.2864C15.5208 15.0947 15.2833 14.9989 15 14.9989C14.7167 14.9989 14.4792 15.0947 14.2875 15.2864C14.0958 15.478 14 15.7155 14 15.9989C14 16.2822 14.0958 16.5197 14.2875 16.7114C14.4792 16.903 14.7167 16.9989 15 16.9989ZM18 16.9989C18.2833 16.9989 18.5208 16.903 18.7125 16.7114C18.9042 16.5197 19 16.2822 19 15.9989C19 15.7155 18.9042 15.478 18.7125 15.2864C18.5208 15.0947 18.2833 14.9989 18 14.9989C17.7167 14.9989 17.4792 15.0947 17.2875 15.2864C17.0958 15.478 17 15.7155 17 15.9989C17 16.2822 17.0958 16.5197 17.2875 16.7114C17.4792 16.903 17.7167 16.9989 18 16.9989ZM9 16.9989H13V11.9989H9V16.9989Z" fill="#EDEFF1"/>
</g>
</svg>
