<svg width="28" height="28" viewBox="0 0 28 28" fill="none" xmlns="http://www.w3.org/2000/svg">
<path d="M12.9743 4.923V0H14.9743V4.923H12.9743ZM21.0717 8.282L19.7 6.91033L23.1383 3.359L24.5563 4.79733L21.0717 8.282ZM23.0257 14.9743V12.9743H27.9487V14.9743H23.0257ZM12.9743 27.9487V23.0383H14.9743V27.9487H12.9743ZM6.90267 8.22833L3.359 4.81033L4.81033 3.405L8.295 6.877L6.90267 8.22833ZM23.118 24.5897L19.7 21.0383L21.0513 19.7L24.5437 23.0973L23.118 24.5897ZM0 14.9743V12.9743H4.923V14.9743H0ZM4.79733 24.5897L3.405 23.1383L6.84367 19.7L7.56667 20.382L8.30267 21.0847L4.79733 24.5897ZM13.9773 21.3077C11.9411 21.3077 10.2093 20.595 8.782 19.1697C7.35467 17.7443 6.641 16.0136 6.641 13.9773C6.641 11.9411 7.35367 10.2093 8.779 8.782C10.2043 7.35467 11.9351 6.641 13.9713 6.641C16.0076 6.641 17.7393 7.35367 19.1667 8.779C20.594 10.2043 21.3077 11.9351 21.3077 13.9713C21.3077 16.0076 20.595 17.7393 19.1697 19.1667C17.7443 20.594 16.0136 21.3077 13.9773 21.3077Z" fill="#E8F2FF"/>
</svg>
