<svg width="24" height="24" viewBox="0 0 24 24" fill="none" xmlns="http://www.w3.org/2000/svg">
<mask id="mask0_67693_17424" style="mask-type:alpha" maskUnits="userSpaceOnUse" x="0" y="0" width="24" height="24">
<rect width="24" height="24" fill="#D9D9D9"/>
</mask>
<g mask="url(#mask0_67693_17424)">
<path d="M11.6923 10.8845C11.4474 10.8845 11.2388 10.7983 11.0663 10.626C10.8939 10.4535 10.8078 10.2448 10.8078 10C10.8078 9.75517 10.8939 9.5465 11.0663 9.374C11.2388 9.20167 11.4474 9.1155 11.6923 9.1155C11.9371 9.1155 12.1458 9.20167 12.3183 9.374C12.4908 9.5465 12.577 9.75517 12.577 10C12.577 10.2448 12.4908 10.4535 12.3183 10.626C12.1458 10.7983 11.9371 10.8845 11.6923 10.8845ZM15.6923 10.8845C15.4474 10.8845 15.2388 10.7983 15.0663 10.626C14.8939 10.4535 14.8078 10.2448 14.8078 10C14.8078 9.75517 14.8939 9.5465 15.0663 9.374C15.2388 9.20167 15.4474 9.1155 15.6923 9.1155C15.9371 9.1155 16.1458 9.20167 16.3183 9.374C16.4908 9.5465 16.577 9.75517 16.577 10C16.577 10.2448 16.4908 10.4535 16.3183 10.626C16.1458 10.7983 15.9371 10.8845 15.6923 10.8845ZM19.6923 10.8845C19.4474 10.8845 19.2388 10.7983 19.0663 10.626C18.8939 10.4535 18.8078 10.2448 18.8078 10C18.8078 9.75517 18.8939 9.5465 19.0663 9.374C19.2388 9.20167 19.4474 9.1155 19.6923 9.1155C19.9371 9.1155 20.1458 9.20167 20.3183 9.374C20.4908 9.5465 20.577 9.75517 20.577 10C20.577 10.2448 20.4908 10.4535 20.3183 10.626C20.1458 10.7983 19.9371 10.8845 19.6923 10.8845ZM19.4403 20.5C17.5558 20.5 15.6625 20.0618 13.7605 19.1855C11.8587 18.3092 10.1113 17.073 8.51825 15.477C6.92542 13.8808 5.69083 12.1333 4.8145 10.2345C3.93817 8.33583 3.5 6.44425 3.5 4.55975C3.5 4.25692 3.6 4.00458 3.8 3.80275C4 3.60092 4.25 3.5 4.55 3.5H7.8115C8.064 3.5 8.28675 3.58242 8.47975 3.74725C8.67275 3.91192 8.7955 4.11542 8.848 4.35775L9.42125 7.3C9.46092 7.573 9.45258 7.80758 9.39625 8.00375C9.33975 8.19992 9.23842 8.36467 9.09225 8.498L6.78275 10.7462C7.15442 11.4269 7.57908 12.0708 8.05675 12.678C8.53425 13.285 9.05125 13.8648 9.60775 14.4173C10.1564 14.9661 10.7398 15.4757 11.3578 15.9462C11.9757 16.4167 12.6431 16.8546 13.3598 17.2598L15.6038 14.9963C15.7603 14.8334 15.9498 14.7193 16.1723 14.6538C16.3946 14.5884 16.6257 14.5724 16.8655 14.6058L19.6423 15.1713C19.8948 15.2379 20.1008 15.3667 20.2605 15.5577C20.4202 15.7487 20.5 15.9654 20.5 16.2078V19.45C20.5 19.75 20.3991 20 20.1973 20.2C19.9954 20.4 19.7431 20.5 19.4403 20.5ZM6.073 9.327L7.85775 7.61925C7.88975 7.59358 7.91058 7.55833 7.92025 7.5135C7.92992 7.46867 7.92833 7.427 7.9155 7.3885L7.48075 5.15375C7.46792 5.10258 7.4455 5.06417 7.4135 5.0385C7.3815 5.01283 7.33983 5 7.2885 5H5.15C5.1115 5 5.07942 5.01283 5.05375 5.0385C5.02825 5.06417 5.0155 5.09625 5.0155 5.13475C5.06667 5.81808 5.1785 6.51225 5.351 7.21725C5.52333 7.92242 5.764 8.62567 6.073 9.327ZM14.773 17.9693C15.4358 18.2783 16.1272 18.5145 16.847 18.678C17.567 18.8413 18.2398 18.9384 18.8653 18.9693C18.9038 18.9693 18.9358 18.9564 18.9615 18.9307C18.9872 18.9051 19 18.873 19 18.8345V16.7308C19 16.6794 18.9872 16.6377 18.9615 16.6058C18.9358 16.5738 18.8974 16.5513 18.8463 16.5385L16.7463 16.1115C16.7078 16.0987 16.6741 16.0971 16.6453 16.1067C16.6164 16.1164 16.5859 16.1372 16.5538 16.1692L14.773 17.9693Z" fill="#2C81FF"/>
</g>
</svg>
