<svg width="15" height="15" viewBox="0 0 15 15" fill="none" xmlns="http://www.w3.org/2000/svg">
<path d="M13.2835 14.1667C11.7131 14.1667 10.1354 13.8015 8.55042 13.0713C6.96556 12.341 5.50938 11.3108 4.18188 9.98083C2.85451 8.65069 1.82569 7.19445 1.09542 5.61208C0.365139 4.02986 0 2.45354 0 0.883125C0 0.630764 0.0833333 0.420486 0.25 0.252291C0.416667 0.0840969 0.625 0 0.875 0H3.59292C3.80333 0 3.98896 0.0686809 4.14979 0.206042C4.31063 0.343264 4.41292 0.512847 4.45667 0.714792L4.93438 3.16667C4.96743 3.39417 4.96049 3.58965 4.91354 3.75313C4.86646 3.9166 4.78201 4.05389 4.66021 4.165L2.73563 6.03854C3.04535 6.60576 3.39924 7.14236 3.79729 7.64833C4.19521 8.15417 4.62604 8.63729 5.08979 9.09771C5.54701 9.55507 6.03313 9.97979 6.54813 10.3719C7.06313 10.764 7.61924 11.1288 8.21646 11.4665L10.0865 9.58021C10.2169 9.44451 10.3748 9.34938 10.5602 9.29479C10.7455 9.24035 10.9381 9.22701 11.1379 9.25479L13.4519 9.72604C13.6623 9.7816 13.834 9.88896 13.9671 10.0481C14.1001 10.2073 14.1667 10.3878 14.1667 10.5898V13.2917C14.1667 13.5417 14.0826 13.75 13.9144 13.9167C13.7462 14.0833 13.5359 14.1667 13.2835 14.1667ZM2.14417 4.85583L3.63146 3.43271C3.65813 3.41132 3.67549 3.38194 3.68354 3.34458C3.6916 3.30722 3.69028 3.2725 3.67958 3.24042L3.31729 1.37813C3.3066 1.33549 3.28792 1.30347 3.26125 1.28208C3.23458 1.26069 3.19986 1.25 3.15708 1.25H1.375C1.34292 1.25 1.31618 1.26069 1.29479 1.28208C1.27354 1.30347 1.26292 1.33021 1.26292 1.36229C1.30556 1.93174 1.39875 2.51021 1.5425 3.09771C1.68611 3.68535 1.88667 4.27139 2.14417 4.85583ZM9.39417 12.0577C9.94653 12.3152 10.5226 12.5121 11.1225 12.6483C11.7225 12.7844 12.2831 12.8653 12.8044 12.891C12.8365 12.891 12.8632 12.8803 12.8846 12.859C12.906 12.8376 12.9167 12.8108 12.9167 12.7788V11.0256C12.9167 10.9828 12.906 10.9481 12.8846 10.9215C12.8632 10.8948 12.8312 10.8761 12.7885 10.8654L11.0385 10.5096C11.0065 10.4989 10.9784 10.4976 10.9544 10.5056C10.9303 10.5137 10.9049 10.531 10.8781 10.5577L9.39417 12.0577Z" fill="#EDEFF1"/>
</svg>
