<svg xmlns="http://www.w3.org/2000/svg" width="24" height="24" viewBox="0 0 24 24" fill="none">
  <path d="M12,2 C6.48,2 2,6.48 2,12 C2,17.52 6.48,22 12,22 C12.83,22 13.5,21.33 13.5,20.5 C13.5,20.12 13.35,19.82 13.11,19.46 C12.88,19.12 12.6,18.73 12.6,18.34 C12.6,17.51 13.27,16.84 14.1,16.84 H15.5 C18.81,16.84 21.5,14.15 21.5,10.84 C21.5,5.87 17.02,2 12,2 Z" 
        stroke="currentColor" stroke-width="1.2" stroke-linecap="round" stroke-linejoin="round"/>
  
  <g stroke="currentColor" stroke-width="1">
    <circle cx="6.5" cy="9.0" r="1.2"/>
    <circle cx="9.5" cy="5.5" r="1.2"/>
    <circle cx="14.0" cy="5.0" r="1.2"/>
    <circle cx="17.5" cy="8.0" r="1.2"/>
  </g>

  <circle cx="8" cy="16.0" r="2.5" stroke="currentColor" stroke-width="1.4"/>
</svg>
